<svg width="80" height="63" viewBox="0 0 80 63" fill="none" xmlns="http://www.w3.org/2000/svg">
<path d="M1.91923 26.8605C0.690284 28.091 0 29.759 0 31.4981C0 33.2371 0.690284 34.9051 1.91923 36.1356L26.6642 60.8937C27.8953 62.1248 29.5651 62.8164 31.3061 62.8164C33.0471 62.8164 34.7169 62.1248 35.948 60.8937C37.1791 59.6626 37.8707 57.9928 37.8707 56.2518C37.8707 54.5108 37.1791 52.841 35.948 51.6099L22.403 38.0606L72.8686 38.0606C74.6091 38.0606 76.2783 37.3692 77.509 36.1384C78.7397 34.9077 79.4311 33.2385 79.4311 31.4981C79.4311 29.7576 78.7397 28.0884 77.509 26.8577C76.2783 25.627 74.6091 24.9356 72.8686 24.9356L22.403 24.9356L35.948 11.3905C36.5576 10.781 37.0411 10.0573 37.371 9.26085C37.7009 8.46439 37.8707 7.61076 37.8707 6.74868C37.8707 5.8866 37.7009 5.03297 37.371 4.23652C37.0411 3.44006 36.5576 2.71638 35.948 2.1068C35.3384 1.49722 34.6147 1.01368 33.8183 0.683781C33.0218 0.353878 32.1682 0.184078 31.3061 0.184078C30.444 0.184078 29.5904 0.353878 28.7939 0.683781C27.9975 1.01368 27.2738 1.49722 26.6642 2.1068L1.91923 26.8605Z" fill="#636E91"/>
</svg>
