<svg width="30" height="30" viewBox="0 0 30 30" fill="none" xmlns="http://www.w3.org/2000/svg">
<path d="M14.3178 3.36133H4.7373C4.01132 3.36133 3.31508 3.64975 2.80174 4.16315C2.28839 4.67655 2 5.37286 2 6.09892V25.262C2 25.9881 2.28839 26.6844 2.80174 27.1978C3.31508 27.7112 4.01132 27.9996 4.7373 27.9996H23.8984C24.6244 27.9996 25.3206 27.7112 25.834 27.1978C26.3473 26.6844 26.6357 25.9881 26.6357 25.262V15.6805" stroke="black" stroke-width="3" stroke-linecap="round" stroke-linejoin="round"/>
<path d="M23.0451 2.85046C23.5895 2.30592 24.328 2 25.098 2C25.868 2 26.6065 2.30592 27.151 2.85046C27.6955 3.395 28.0014 4.13355 28.0014 4.90365C28.0014 5.67375 27.6955 6.4123 27.151 6.95684L14.8154 19.2951C14.4904 19.6199 14.0889 19.8576 13.6479 19.9864L9.71578 21.1362C9.59801 21.1705 9.47317 21.1726 9.35433 21.1421C9.23549 21.1117 9.12702 21.0499 9.04028 20.9631C8.95353 20.8763 8.8917 20.7679 8.86125 20.649C8.83081 20.5302 8.83287 20.4053 8.86722 20.2875L10.0169 16.355C10.1463 15.9143 10.3844 15.5132 10.7094 15.1888L23.0451 2.85046Z" stroke="black" stroke-width="3" stroke-linecap="round" stroke-linejoin="round"/>
</svg>
